<svg width="70" height="70" viewBox="0 0 70 70" fill="none" xmlns="http://www.w3.org/2000/svg">
<path d="M35 -2.31748e-07L0 35L35 70L70 35L35 -2.31748e-07Z" fill="#B0332B"/>
<path d="M33.5803 47.3204V39.1167L25.1756 22.9047C24.3368 21.2329 23.6589 20.6757 21.5505 20.4344V20.038H31.3915V20.4344C29.8806 20.6757 28.6397 20.9112 28.6397 21.7499C28.6397 22.0717 28.7202 22.4278 28.9959 22.9047L36.4528 37.445L43.6626 22.784C43.7833 22.4623 43.8637 22.2268 43.8637 21.9051C43.8637 20.9112 42.3872 20.6297 40.5948 20.4286V20.0322H48.4424V20.4286C46.4891 20.7101 45.6561 21.3018 44.8575 22.8587L36.9698 38.8755V47.3204C36.9698 49.1933 37.2858 49.5092 40.2789 49.9114V50.3078H30.277V49.9114C33.2644 49.515 33.5803 49.1933 33.5803 47.3204Z" fill="white"/>
<path d="M46.7531 23.9785C46.5923 23.8866 46.4716 23.7602 46.374 23.5993C46.282 23.4385 46.2361 23.2661 46.2361 23.0766C46.2361 22.8927 46.282 22.7204 46.374 22.5595C46.4659 22.3987 46.5923 22.278 46.7531 22.1804C46.914 22.0827 47.0863 22.0425 47.2702 22.0425C47.454 22.0425 47.6321 22.0884 47.7872 22.1804C47.9423 22.2723 48.0687 22.3987 48.1664 22.5595C48.264 22.7204 48.3042 22.8927 48.3042 23.0766C48.3042 23.2661 48.2583 23.4385 48.1664 23.5993C48.0745 23.7602 47.9481 23.8866 47.7872 23.9785C47.6263 24.0704 47.454 24.1164 47.2702 24.1164C47.0863 24.1164 46.914 24.0704 46.7531 23.9785ZM47.6723 23.7659C47.7929 23.697 47.8906 23.5993 47.9596 23.4787C48.0285 23.3581 48.0687 23.2259 48.0687 23.0823C48.0687 22.9387 48.0342 22.8066 47.9596 22.6859C47.8906 22.5653 47.7929 22.4676 47.6723 22.3987C47.5517 22.3297 47.4195 22.2895 47.2759 22.2895C47.1323 22.2895 47.0002 22.324 46.8795 22.3987C46.7589 22.4676 46.6612 22.5653 46.5923 22.6859C46.5233 22.8066 46.4889 22.9387 46.4889 23.0823C46.4889 23.2259 46.5233 23.3581 46.5923 23.4787C46.6612 23.5993 46.7589 23.697 46.8795 23.7659C47.0002 23.8349 47.1323 23.8751 47.2759 23.8751C47.4195 23.8751 47.5517 23.8349 47.6723 23.7659ZM46.9255 22.5768H47.3563C47.4138 22.5768 47.4712 22.5882 47.5229 22.617C47.5746 22.6457 47.6149 22.6859 47.6436 22.7319C47.6723 22.7836 47.6895 22.8353 47.6895 22.8927C47.6895 22.9502 47.6723 23.0076 47.6436 23.0651C47.6091 23.1168 47.5689 23.157 47.5057 23.1857L47.6953 23.5649H47.5057L47.3334 23.2144H47.0921V23.5649H46.9255V22.5768ZM47.4712 23.0134C47.5 22.9789 47.5172 22.9444 47.5172 22.8985C47.5172 22.8525 47.5 22.8123 47.4712 22.7778C47.4425 22.7434 47.4023 22.7319 47.3621 22.7319H47.0921V23.0651H47.3621C47.4023 23.0651 47.4368 23.0478 47.4712 23.0134Z" fill="white"/>
</svg>
