<svg width="406" height="38" viewBox="0 0 406 38" fill="none" xmlns="http://www.w3.org/2000/svg">
<path d="M0.478516 26.3233L4.08661 19.1251H4.97368C4.34575 20.8247 3.53842 23.0741 3.53842 24.7337C3.53842 28.4228 6.77773 29.4526 9.42898 29.4526C14.582 29.4526 18.1801 26.5333 18.1801 22.5143C18.1801 19.7049 15.5687 18.8651 11.8909 17.7154L10.5652 17.2755C7.73457 16.3857 5.01355 14.6161 5.01355 11.117C5.01355 6.16814 9.02032 1.88916 14.9109 1.88916C18.7383 1.88916 21.3098 3.61875 22.456 4.87845L18.9974 10.927H18.1103C18.6585 9.67731 19.4359 7.82775 19.4359 6.71801C19.4359 4.09863 16.9741 3.06888 14.5022 3.06888C10.4157 3.06888 7.21628 5.53829 7.21628 8.74753C7.21628 11.5569 10.1964 12.5866 12.6982 13.3264L13.7248 13.6264C16.5555 14.4762 20.4925 15.7259 20.4925 20.1548C20.4925 26.0634 15.5288 30.6323 9.05023 30.6323C4.59493 30.6423 1.87391 28.5728 0.478516 26.3233Z" fill="#AE332B"/>
<path d="M20.2732 37.1707L22.7749 36.3609L27.2601 13.2964L24.9776 12.8165L25.0873 12.2966C29.3532 11.2668 31.4563 10.8569 33.2503 10.8569C38.9515 10.8569 40.935 14.846 40.935 19.015C40.935 24.9236 37.1076 30.7122 31.6257 30.7122C29.2336 30.7122 28.0575 29.5325 27.0309 28.2028L25.4461 36.3609L27.6887 37.1707L27.6189 37.6106H20.1536L20.2732 37.1707ZM31.2669 29.2825C34.7653 29.2825 38.1143 25.0336 38.1143 19.3949C38.1143 15.3759 36.4199 12.0467 32.4131 12.0467C31.7852 12.0467 30.9778 12.1166 30.1306 12.3066L27.2601 27.1031C28.0674 28.2028 29.4628 29.2825 31.2669 29.2825Z" fill="#AE332B"/>
<path d="M52.9353 12.0769C49.995 12.0769 47.7125 14.2863 47.7125 17.2057C47.7125 17.5756 47.7524 17.9055 47.8221 18.2354H46.9749L46.1975 13.8764C47.3039 12.6967 49.9551 10.8472 53.8821 10.8472C57.6397 10.8472 59.5136 12.5468 58.7062 16.6758L56.5035 28.153L58.786 28.443L58.6763 29.1028L53.932 30.2126H53.4137L54.2609 25.8936C53.6728 27.1133 51.1312 30.6525 47.3836 30.6525C45.0314 30.6525 43.5164 29.1728 43.5164 26.9233C43.5164 21.0547 51.3904 18.8453 55.7659 18.0255L55.9852 16.8857C56.6131 13.7065 55.4769 12.0769 52.9353 12.0769ZM48.7491 29.1328C51.3605 29.1328 53.6828 25.9636 54.5599 24.3739L55.6264 18.8753C54.0815 19.2052 46.4268 20.4649 46.4268 26.5134C46.4268 27.9131 47.0846 29.1328 48.7491 29.1328Z" fill="#AE332B"/>
<path d="M62.6533 23.184C62.6533 16.5056 67.7664 10.8569 73.7268 10.8569C77.0059 10.8569 78.8399 12.4765 79.5775 13.7362L76.0491 20.0447H75.3514C75.79 19.1949 76.8564 17.0954 76.8564 15.2859C76.8564 13.2964 75.6405 12.1466 73.3979 12.1466C68.9426 12.1466 65.3743 16.8655 65.3743 22.7741C65.3743 26.7232 67.4375 29.3425 70.4177 29.3425C73.5773 29.3425 76.1886 27.383 78.4412 23.7339H79.1389C77.1854 27.573 73.9859 30.6322 69.6104 30.6322C65.185 30.6422 62.6533 27.473 62.6533 23.184Z" fill="#AE332B"/>
<path d="M81.6707 23.224C81.6707 16.6955 86.714 10.8569 92.3753 10.8569C96.4917 10.8569 99.0732 13.7762 98.0765 18.795L97.8971 19.6848H84.7206L84.6807 20.0547C83.6142 25.4435 85.817 29.3525 89.8636 29.3525C92.6644 29.3525 95.4552 27.363 97.6679 23.7439H98.3656C96.3821 27.6529 92.8438 30.6422 88.5081 30.6422C83.993 30.6422 81.6707 27.393 81.6707 23.224ZM95.3156 18.4651C96.0532 14.696 94.8372 12.1966 91.9268 12.1966C88.8769 12.1966 86.116 14.886 85.0794 18.4651H95.3156Z" fill="#AE332B"/>
<path d="M107.864 29.7926L110.406 28.9828L113.565 12.7066H111.283L111.542 11.4169H113.824L114.452 8.16771C115.409 3.36886 117.582 0.119629 121.37 0.119629C124.13 0.119629 125.346 1.9292 125.935 2.95895L122.625 8.6376H121.818C124.21 4.31863 123.841 1.62927 121.409 1.62927C119.017 1.62927 117.881 4.20866 117.213 7.71782L116.476 11.4069H121.26L121.001 12.6966H116.217L113.087 28.9728L115.33 29.7826L115.22 30.2225H107.784L107.864 29.7926Z" fill="#AE332B"/>
<path d="M120.592 22.7441C120.592 16.6955 125.596 10.8569 131.735 10.8569C136.998 10.8569 138.762 14.696 138.762 18.2752C138.762 24.3237 133.868 30.6422 127.758 30.6422C122.575 30.6422 120.592 26.5832 120.592 22.7441ZM128.506 29.3525C132.254 29.3525 135.862 23.8538 135.862 18.3951C135.862 14.966 134.357 12.1566 131.117 12.1566C127.001 12.1566 123.313 17.0255 123.313 22.4542C123.313 26.1433 125.117 29.3525 128.506 29.3525Z" fill="#AE332B"/>
<path d="M139.5 29.7927L142.071 28.9829L145.091 13.2966L142.769 12.8167L142.878 12.3768L147.732 11.4171H148.101L147.184 16.2159H147.224C148.291 14.0764 150.384 10.8672 153.035 10.8672C154.879 10.8672 155.537 12.4568 155.836 13.1966L152.557 19.0652H151.929C152.228 18.4054 153.324 15.966 153.324 14.4163C153.324 13.4166 152.915 12.7967 152.038 12.7967C150.015 12.7967 147.812 16.4159 146.556 19.4751L144.712 28.9929L146.955 29.8027L146.845 30.2426H139.41L139.5 29.7927Z" fill="#AE332B"/>
<path d="M165.324 25.2537L167.756 12.7066H164.956L165.105 12.0468L168.344 11.4169L170.956 5.14844H171.873L170.657 11.4169H175.222L174.963 12.7066H170.398L167.966 25.3636C167.417 28.173 168.035 29.3827 169.55 29.3827C170.398 29.3827 171.574 28.9428 172.75 26.9832H173.557C172.192 29.3827 170.099 30.6324 168.075 30.6324C165.663 30.6424 164.627 28.9128 165.324 25.2537Z" fill="#AE332B"/>
<path d="M174.305 29.7928L176.846 28.983L181.96 2.59928L179.677 2.11939L179.747 1.6795L184.491 0.719727H185.01L182.179 15.1463C183.176 13.6367 185.528 10.8673 189.206 10.8673C191.927 10.8673 193.88 12.377 193.103 16.406L190.641 28.993L192.884 29.8028L192.814 30.2427H185.488L185.598 29.8028L187.99 28.993L190.163 17.8157C190.94 13.7566 190.163 12.317 187.81 12.317C185.568 12.317 182.996 14.7864 181.85 17.0758L179.528 28.993L181.591 29.8028L181.521 30.2427H174.235L174.305 29.7928Z" fill="#AE332B"/>
<path d="M196.97 23.224C196.97 16.6955 202.013 10.8569 207.675 10.8569C211.791 10.8569 214.373 13.7762 213.376 18.795L213.196 19.6848H200.03L199.99 20.0547C198.924 25.4435 201.126 29.3525 205.173 29.3525C207.974 29.3525 210.764 27.363 212.977 23.7439H213.675C211.691 27.6529 208.153 30.6422 203.817 30.6422C199.282 30.6422 196.97 27.393 196.97 23.224ZM210.615 18.4651C211.353 14.696 210.137 12.1966 207.226 12.1966C204.176 12.1966 201.415 14.886 200.379 18.4651H210.615Z" fill="#AE332B"/>
<path d="M225.147 22.7441C225.147 16.6955 230.15 10.8569 236.29 10.8569C241.553 10.8569 243.317 14.696 243.317 18.2752C243.317 24.3237 238.423 30.6422 232.313 30.6422C227.13 30.6422 225.147 26.5832 225.147 22.7441ZM233.061 29.3525C236.808 29.3525 240.417 23.8538 240.417 18.3951C240.417 14.966 238.912 12.1566 235.672 12.1566C231.556 12.1566 227.868 17.0255 227.868 22.4542C227.868 26.1433 229.672 29.3525 233.061 29.3525Z" fill="#AE332B"/>
<path d="M244.055 29.7927L246.626 28.9829L249.646 13.2966L247.324 12.8167L247.433 12.3768L252.138 11.4171H252.656L251.958 15.1862C252.955 13.6365 255.307 10.8672 258.985 10.8672C261.706 10.8672 263.62 12.3768 262.852 16.4059L260.42 28.9929L262.623 29.8027L262.553 30.2426H255.267L255.337 29.8027L257.729 28.9929L259.862 17.8155C260.63 13.8665 259.603 12.3168 257.54 12.3168C254.969 12.3168 252.796 14.6463 251.58 17.0057L249.257 29.0029L251.35 29.8127L251.241 30.2526H243.955L244.055 29.7927Z" fill="#AE332B"/>
<path d="M266.72 23.224C266.72 16.6955 271.763 10.8569 277.424 10.8569C281.541 10.8569 284.122 13.7762 283.126 18.795L282.946 19.6848H269.78L269.74 20.0547C268.673 25.4435 270.876 29.3525 274.923 29.3525C277.723 29.3525 280.514 27.363 282.727 23.7439H283.425C281.441 27.6529 277.903 30.6422 273.567 30.6422C269.032 30.6422 266.72 27.393 266.72 23.224ZM280.365 18.4651C281.102 14.696 279.886 12.1966 276.976 12.1966C273.926 12.1966 271.165 14.886 270.128 18.4651H280.365Z" fill="#AE332B"/>
<path d="M309.03 27.3631C306.528 29.3926 303.329 30.6823 300.389 30.6823C296.491 30.6823 293.691 28.4328 293.691 25.0337C293.691 20.2048 298.515 17.4655 300.787 16.1758C300.379 14.8861 300.159 13.5964 300.159 12.1867C300.159 6.42808 303.947 1.88916 308.841 1.88916C311.891 1.88916 313.735 3.61875 313.735 6.01818C313.735 11.2569 306.449 14.0263 303.07 15.7559C304.066 19.295 306.269 22.7342 309.1 25.8635C312.19 23.0541 314.103 18.8151 311.671 13.7563H312.299C314.95 18.5552 313.186 23.424 309.798 26.6333C311.382 28.2229 313.146 29.8025 314.911 31.1722H314.283C312.489 30.0525 310.754 28.8028 309.03 27.3631ZM301.156 29.2826C303.289 29.2826 305.94 28.3229 308.143 26.6233C305.053 23.7839 302.362 20.5347 301.046 16.9556C298.136 19.0251 296.412 22.0144 296.412 24.8137C296.412 27.613 298.355 29.2826 301.156 29.2826ZM302.88 15.106C307.037 12.8565 311.303 10.0872 311.303 6.02817C311.303 4.14862 310.087 3.10887 308.432 3.10887C305.342 3.10887 302.472 7.38785 302.472 12.0767C302.482 13.1165 302.661 14.1462 302.88 15.106Z" fill="#AE332B"/>
<path d="M326.134 22.7441C326.134 16.6955 331.137 10.8569 337.277 10.8569C342.54 10.8569 344.304 14.696 344.304 18.2752C344.304 24.3237 339.41 30.6422 333.3 30.6422C328.117 30.6422 326.134 26.5832 326.134 22.7441ZM334.038 29.3525C337.785 29.3525 341.393 23.8538 341.393 18.3951C341.393 14.966 339.888 12.1566 336.649 12.1566C332.533 12.1566 328.845 17.0255 328.845 22.4542C328.855 26.1433 330.659 29.3525 334.038 29.3525Z" fill="#AE332B"/>
<path d="M345.041 29.7927L347.613 28.9829L350.633 13.2966L348.311 12.8167L348.42 12.3768L353.125 11.4171H353.643L352.945 15.1862C353.942 13.6365 356.294 10.8672 359.972 10.8672C362.693 10.8672 364.607 12.3768 363.839 16.4059L361.407 28.9929L363.61 29.8027L363.54 30.2426H356.254L356.324 29.8027L358.716 28.9929L360.849 17.8155C361.617 13.8665 360.59 12.3168 358.527 12.3168C355.955 12.3168 353.782 14.6463 352.567 17.0057L350.244 29.0029L352.337 29.8127L352.228 30.2526H344.942L345.041 29.7927Z" fill="#AE332B"/>
<path d="M365.534 29.7928L368.075 28.983L373.188 2.59928L370.906 2.11939L370.976 1.6795L375.72 0.719727H376.238L370.756 28.983L372.959 29.7928L372.889 30.2327H365.454L365.534 29.7928Z" fill="#AE332B"/>
<path d="M373.328 33.8517L374.026 33.3718C374.833 34.2616 376.418 35.7712 377.743 35.7712C379.767 35.7712 382.308 32.562 383.295 30.0925L379.946 12.7067L377.444 11.8569L377.514 11.417H385.727L385.657 11.8569L382.747 12.7067L385.508 27.2132L393.422 12.6367L390.74 11.8569L390.81 11.417H397.986L397.917 11.8569L394.638 12.7067L385.956 28.393C383.046 33.6317 380.066 37.8807 376.278 37.8807L373.328 33.8517Z" fill="#AE332B"/>
<path d="M399.601 26.6236C400.628 26.6236 401.296 27.3234 401.296 28.2432C401.296 29.5329 400.159 30.6426 398.834 30.6426C397.837 30.6426 397.179 30.0128 397.179 29.093C397.169 27.7633 398.316 26.6236 399.601 26.6236ZM402.95 3.29911C403.359 1.15962 403.907 0.719727 404.645 0.719727C405.193 0.719727 405.532 0.939674 405.532 1.85946C405.532 3.3391 400.747 23.0744 400.458 24.1841H399.761C400.189 20.9749 402.731 4.43884 402.95 3.29911Z" fill="#AE332B"/>
</svg>
