<svg width="407" height="42" viewBox="0 0 407 42" fill="none" xmlns="http://www.w3.org/2000/svg">
<path d="M0.5 28.3001L4.09735 21.1001H4.99669C4.39713 22.8001 3.59772 25.1001 3.59772 26.7001C3.59772 30.4001 6.79536 31.4001 9.49337 31.4001C14.6895 31.4001 18.2869 28.5001 18.2869 24.5001C18.2869 21.7001 15.6888 20.9001 11.9915 19.7001L10.6925 19.3001C7.79462 18.4001 4.99669 16.6001 4.99669 13.1001C4.99669 8.20015 8.99374 3.90015 14.9893 3.90015C18.7865 3.90015 21.3846 5.60015 22.5837 6.90015L19.0863 13.0001H18.187C18.6866 11.8001 19.486 9.90015 19.486 8.80015C19.486 6.20015 16.9878 5.10015 14.5896 5.10015C10.4926 5.10015 7.29499 7.60015 7.29499 10.8001C7.29499 13.6001 10.2928 14.6001 12.7909 15.4001L13.7902 15.7001C16.5881 16.6001 20.5852 17.8001 20.5852 22.2001C20.5852 28.1001 15.5889 32.7001 9.09367 32.7001C4.59698 32.7001 1.89897 30.6001 0.5 28.3001Z" fill="white"/>
<path d="M20.2858 39.1999L22.7839 38.3999L27.2806 15.2999L24.9823 14.7999L25.0823 14.2999C29.3791 13.2999 31.4775 12.8999 33.2762 12.8999C38.972 12.8999 40.9705 16.8999 40.9705 21.0999C40.9705 26.9999 37.1733 32.7999 31.6774 32.7999C29.2792 32.7999 28.08 31.5999 27.0808 30.2999L25.482 38.4999L27.6803 39.2999L27.5804 39.6999H20.0859L20.2858 39.1999ZM31.3776 31.2999C34.875 31.2999 38.2725 27.0999 38.2725 21.3999C38.2725 17.3999 36.5738 13.9999 32.5767 13.9999C31.9772 13.9999 31.1778 14.0999 30.2784 14.2999L27.3806 29.0999C28.18 30.1999 29.5789 31.2999 31.3776 31.2999Z" fill="white"/>
<path d="M53.0614 14.1C50.0636 14.1 47.8652 16.3 47.8652 19.2C47.8652 19.6 47.8652 19.9 47.9651 20.2H47.1657L46.3663 15.8C47.4655 14.6 50.1635 12.8 54.0606 12.8C57.8578 12.8 59.7564 14.5 58.8571 18.6L56.6587 30.1L58.957 30.4L58.8571 31.1L54.0606 32.2001H53.561L54.3604 27.9C53.7608 29.1 51.2627 32.7001 47.4655 32.7001C45.0673 32.7001 43.5684 31.2001 43.5684 29C43.5684 23.1 51.4625 20.9 55.8593 20.1L56.0592 19C56.7586 15.7 55.6594 14.1 53.0614 14.1ZM48.8645 31.1C51.4625 31.1 53.8608 27.9 54.6602 26.3L55.7594 20.8C54.2605 21.1 46.5661 22.4 46.5661 28.4C46.5661 29.9 47.1657 31.1 48.8645 31.1Z" fill="white"/>
<path d="M62.8545 25.1999C62.8545 18.4999 67.9507 12.8999 73.9463 12.8999C77.2439 12.8999 79.0426 14.4999 79.842 15.7999L76.3445 22.0999H75.6451C76.0448 21.1999 77.144 19.0999 77.144 17.2999C77.144 15.2999 75.9448 14.1999 73.6465 14.1999C69.1498 14.1999 65.5525 18.8999 65.5525 24.7999C65.5525 28.7999 67.651 31.3999 70.6487 31.3999C73.8464 31.3999 76.4445 29.3999 78.7428 25.7999H79.4423C77.4437 29.5999 74.2461 32.6999 69.8493 32.6999C65.3527 32.6999 62.8545 29.4999 62.8545 25.1999Z" fill="white"/>
<path d="M81.8401 25.2C81.8401 18.7 86.9363 12.8 92.5322 12.8C96.6292 12.8 99.2273 15.7 98.228 20.7L98.0282 21.6H84.9378V22C83.8386 27.4 86.037 31.3 90.134 31.3C92.9319 31.3 95.7298 29.3 97.9282 25.7H98.6277C96.6292 29.6 93.1318 32.6 88.735 32.6C84.2383 32.7 81.8401 29.4 81.8401 25.2ZM95.53 20.5C96.2295 16.7 95.0304 14.2 92.1325 14.2C89.0348 14.2 86.3368 16.9 85.2376 20.5H95.53Z" fill="white"/>
<path d="M108.121 31.8001L110.719 31.0001L113.916 14.7001H111.618L111.918 13.4001H114.216L114.816 10.2001C115.815 5.4001 117.913 2.1001 121.711 2.1001C124.509 2.1001 125.708 3.9001 126.307 4.9001L123.01 10.6001H122.21C124.609 6.3001 124.209 3.6001 121.811 3.6001C119.412 3.6001 118.313 6.2001 117.614 9.7001L116.914 13.4001H121.711L121.411 14.7001H116.614L113.417 31.0001L115.615 31.8001L115.515 32.2001H108.021L108.121 31.8001Z" fill="white"/>
<path d="M120.911 24.8001C120.911 18.8001 125.907 12.9001 132.103 12.9001C137.399 12.9001 139.198 16.7001 139.198 20.3001C139.198 26.3001 134.301 32.7001 128.206 32.7001C122.91 32.7001 120.911 28.6001 120.911 24.8001ZM128.805 31.4001C132.603 31.4001 136.2 25.9001 136.2 20.4001C136.2 17.0001 134.701 14.2001 131.403 14.2001C127.306 14.2001 123.609 19.1001 123.609 24.5001C123.609 28.1001 125.408 31.4001 128.805 31.4001Z" fill="white"/>
<path d="M139.897 31.8L142.495 31L145.493 15.3L143.195 14.8L143.295 14.4L148.191 13.4H148.591L147.692 18.2C148.791 16.1 150.889 12.8 153.487 12.8C155.386 12.8 155.985 14.4 156.285 15.1L152.988 21H152.388C152.688 20.3 153.787 17.9 153.787 16.4C153.787 15.4 153.387 14.8 152.488 14.8C150.49 14.8 148.291 18.4 146.992 21.5L145.094 31L147.292 31.8L147.192 32.2001H139.698L139.897 31.8Z" fill="white"/>
<path d="M165.779 27.3001L168.177 14.7001H165.379L165.479 14.0001L168.676 13.4001L171.275 7.1001H172.174L170.975 13.4001H175.571L175.272 14.7001H170.875L168.477 27.4001C167.877 30.2001 168.577 31.4001 170.075 31.4001C170.975 31.4001 172.074 31.0001 173.273 29.0001H174.072C172.674 31.4001 170.575 32.6001 168.577 32.6001C166.078 32.7001 165.079 30.9001 165.779 27.3001Z" fill="white"/>
<path d="M174.772 31.8002L177.37 31.0002L182.466 4.6002L180.168 4.1002L180.268 3.7002L185.064 2.7002H185.564L182.766 17.1002C183.765 15.6002 186.163 12.8002 189.861 12.8002C192.559 12.8002 194.557 14.3002 193.758 18.3002L191.16 31.0002L193.358 31.8002L193.258 32.2002H185.864L185.964 31.8002L188.362 31.0002L190.56 19.8002C191.36 15.7002 190.56 14.3002 188.162 14.3002C185.964 14.3002 183.365 16.8002 182.166 19.1002L179.968 31.0002L182.066 31.8002L181.967 32.2002H174.672L174.772 31.8002Z" fill="white"/>
<path d="M197.455 25.2003C197.455 18.7003 202.551 12.8003 208.147 12.8003C212.244 12.8003 214.842 15.7003 213.843 20.7003L213.643 21.6003H200.453V22.0003C199.354 27.4003 201.552 31.3003 205.649 31.3003C208.447 31.3003 211.245 29.3003 213.443 25.7003H214.143C212.144 29.6003 208.647 32.6003 204.25 32.6003C199.753 32.7003 197.455 29.4003 197.455 25.2003ZM211.145 20.5003C211.844 16.7003 210.645 14.2003 207.747 14.2003C204.65 14.2003 201.952 16.9003 200.853 20.5003H211.145Z" fill="white"/>
<path d="M225.734 24.7999C225.734 18.7999 230.731 12.8999 236.926 12.8999C242.222 12.8999 244.021 16.6999 244.021 20.2999C244.021 26.2999 239.125 32.6999 233.029 32.6999C227.733 32.6999 225.734 28.5999 225.734 24.7999ZM233.629 31.3999C237.426 31.3999 241.023 25.8999 241.023 20.3999C241.023 16.9999 239.524 14.1999 236.227 14.1999C232.13 14.1999 228.432 19.0999 228.432 24.4999C228.432 28.0999 230.231 31.3999 233.629 31.3999Z" fill="white"/>
<path d="M244.72 31.8001L247.318 31.0001L250.316 15.3001L248.018 14.8001L248.118 14.4001L252.814 13.4001H253.314L252.614 17.2001C253.613 15.6001 256.012 12.9001 259.609 12.9001C262.307 12.9001 264.206 14.4001 263.506 18.4001L261.108 31.0001L263.306 31.8001L263.206 32.2001H255.912L256.012 31.8001L258.41 31.0001L260.508 19.8001C261.308 15.9001 260.209 14.3001 258.21 14.3001C255.612 14.3001 253.414 16.6001 252.215 19.0001L249.916 31.0001L252.015 31.8001L251.915 32.2001H244.62L244.72 31.8001Z" fill="white"/>
<path d="M267.403 25.2C267.403 18.7 272.5 12.8 278.095 12.8C282.192 12.8 284.79 15.7 283.791 20.7L283.591 21.6H270.401V22C269.302 27.4 271.5 31.3 275.597 31.3C278.395 31.3 281.193 29.3 283.392 25.7H284.091C282.092 29.6 278.595 32.6 274.198 32.6C269.702 32.7 267.403 29.4 267.403 25.2ZM281.093 20.5C281.793 16.7 280.594 14.2 277.696 14.2C274.598 14.2 271.9 16.9 270.801 20.5H281.093Z" fill="white"/>
<path d="M309.772 29.3999C307.274 31.3999 304.077 32.6999 301.079 32.6999C297.182 32.6999 294.384 30.4999 294.384 27.0999C294.384 22.2999 299.18 19.4999 301.479 18.1999C301.079 16.8999 300.879 15.5999 300.879 14.1999C300.879 8.3999 304.676 3.8999 309.573 3.8999C312.67 3.8999 314.469 5.5999 314.469 7.9999C314.469 13.1999 307.174 15.9999 303.777 17.6999C304.776 21.1999 306.975 24.6999 309.772 27.7999C312.87 24.9999 314.769 20.7999 312.371 15.6999H312.97C315.668 20.4999 313.869 25.3999 310.472 28.5999C312.071 30.1999 313.869 31.7999 315.568 33.0999H314.969C313.27 32.0999 311.571 30.7999 309.772 29.3999ZM301.878 31.2999C303.977 31.2999 306.675 30.2999 308.873 28.5999C305.775 25.7999 303.077 22.4999 301.778 18.8999C298.88 20.9999 297.182 23.9999 297.182 26.7999C297.182 29.5999 299.08 31.2999 301.878 31.2999ZM303.677 17.0999C307.874 14.8999 312.171 12.0999 312.171 7.9999C312.171 6.0999 310.972 5.0999 309.273 5.0999C306.175 5.0999 303.277 9.3999 303.277 14.0999C303.277 15.0999 303.477 16.0999 303.677 17.0999Z" fill="white"/>
<path d="M326.959 24.7999C326.959 18.7999 331.955 12.8999 338.151 12.8999C343.447 12.8999 345.146 16.6999 345.146 20.2999C345.146 26.2999 340.249 32.6999 334.154 32.6999C328.957 32.6999 326.959 28.5999 326.959 24.7999ZM334.853 31.3999C338.65 31.3999 342.248 25.8999 342.248 20.3999C342.248 16.9999 340.749 14.1999 337.451 14.1999C333.354 14.1999 329.657 19.0999 329.657 24.4999C329.657 28.0999 331.556 31.3999 334.853 31.3999Z" fill="white"/>
<path d="M345.946 31.7999L348.544 30.9999L351.541 15.2999L349.243 14.7999L349.343 14.3999L354.04 13.3999H354.539L353.84 17.1999C354.839 15.5999 357.237 12.8999 360.835 12.8999C363.533 12.8999 365.431 14.3999 364.732 18.3999L362.334 30.9999L364.532 31.7999L364.432 32.1999H357.137L357.237 31.7999L359.636 30.9999L361.734 19.7999C362.533 15.8999 361.434 14.2999 359.436 14.2999C356.838 14.2999 354.639 16.5999 353.44 18.9999L351.142 30.9999L353.24 31.7999L353.14 32.1999H345.846L345.946 31.7999Z" fill="white"/>
<path d="M366.43 31.8002L368.928 31.0002L374.024 4.6002L371.726 4.1002L371.826 3.7002L376.622 2.7002H377.122L371.726 31.0002L373.924 31.8002L373.825 32.2002H366.33L366.43 31.8002Z" fill="white"/>
<path d="M374.324 35.8999L375.024 35.3999C375.823 36.2999 377.422 37.7999 378.721 37.7999C380.719 37.7999 383.318 34.5999 384.317 32.0999L380.919 14.6999L378.421 13.7999L378.521 13.3999H386.715L386.615 13.7999L383.717 14.6999L386.515 29.1999L394.409 14.5999L391.711 13.7999L391.811 13.3999H399.006L398.906 13.7999L395.609 14.6999L386.915 30.3999C384.017 35.5999 381.019 39.8999 377.222 39.8999L374.324 35.8999Z" fill="white"/>
<path d="M400.606 28.6002C401.605 28.6002 402.304 29.3002 402.304 30.2002C402.304 31.5002 401.205 32.6002 399.806 32.6002C398.807 32.6002 398.107 32.0002 398.107 31.1002C398.207 29.8002 399.307 28.6002 400.606 28.6002ZM404.003 5.3002C404.403 3.2002 405.002 2.7002 405.702 2.7002C406.201 2.7002 406.601 2.9002 406.601 3.8002C406.601 5.3002 401.805 25.0002 401.505 26.1002H400.805C401.205 23.0002 403.803 6.4002 404.003 5.3002Z" fill="white"/>
</svg>
