<svg width="30" height="19" viewBox="0 0 30 19" fill="none" xmlns="http://www.w3.org/2000/svg">
<path d="M11.0317 7.20284C11.4936 6.92646 11.7274 6.42552 11.7274 5.7231C11.7274 4.94582 11.4176 4.42192 10.8038 4.16856C10.2893 3.99587 9.62278 3.9095 8.82773 3.9095H4.40219V7.6116H9.24868C9.97359 7.6116 10.5757 7.47341 11.0317 7.20284ZM10.5524 5.7231C10.5524 5.98794 10.5057 6.16069 10.418 6.2125C10.1491 6.37368 9.75735 6.45432 9.24287 6.45432H5.57734V5.06673H8.82782C9.47675 5.06673 10.0029 5.13002 10.3887 5.25096C10.4472 5.27975 10.5524 5.32582 10.5524 5.7231ZM10.9792 10.5134C10.5817 10.3349 10.0146 10.237 9.30137 10.2313H4.40228V14.6876H9.2429C9.96782 14.6876 10.5408 14.5897 10.9441 14.394C11.6866 14.0313 12.0607 13.3289 12.0607 12.3098C12.0666 11.4462 11.7041 10.8416 10.9792 10.5134ZM5.57734 11.3885H9.30131C10.0145 11.3943 10.3536 11.5037 10.4939 11.567C10.7044 11.6649 10.8915 11.7915 10.8915 12.3097C10.8915 13.1331 10.5758 13.2828 10.4238 13.3576C10.3127 13.4095 9.98531 13.5304 9.24285 13.5304H5.57731L5.57734 11.3885ZM24.706 8.28517C24.1857 7.84759 23.5368 7.62303 22.7709 7.62303C21.9408 7.62303 21.2802 7.8591 20.8183 8.33122C20.3565 8.79759 20.0642 9.43666 19.9531 10.2312L19.9472 10.2831H25.5888L25.5829 10.237C25.5186 9.37911 25.2263 8.72276 24.706 8.28517ZM21.6718 9.12001C21.7712 9.02213 22.0401 8.77454 22.7709 8.77454C23.2269 8.77454 23.5952 8.88971 23.8934 9.12001H21.6718ZM29.8798 9.75334C29.7044 8.64213 29.3127 7.64605 28.7164 6.78816C28.1669 5.98211 27.4829 5.34876 26.6703 4.88815V0.293599H18.8832V4.93422C18.4096 5.21631 17.977 5.5503 17.5737 5.94755C16.6558 6.85725 16.0536 8.02605 15.7555 9.43086C15.5392 9.11995 15.2819 8.83784 14.9955 8.59025C15.0291 8.5523 15.0622 8.51392 15.0948 8.47512C15.7788 7.6633 16.1237 6.61544 16.1237 5.35453C16.1237 4.1512 15.7964 3.0918 15.1474 2.20515C14.0893 0.782996 12.3471 0.0403023 9.97353 0H0V18.597H9.37724C10.2893 18.597 11.1603 18.5164 11.9554 18.3494C12.844 18.1652 13.6274 17.8197 14.288 17.3188C14.8726 16.887 15.3579 16.3515 15.7437 15.7239C15.8957 15.4879 16.0302 15.2403 16.1413 14.9812C16.5271 15.9082 17.0883 16.6739 17.8366 17.267C19.2865 18.4185 20.9818 19 22.876 19C25.1794 19 27.0151 18.2861 28.3304 16.8755C29.2015 15.9658 29.6984 15.0215 29.8153 14.0658L29.8913 13.4209H29.9732L29.9908 12.327C30.02 11.2561 29.9792 10.3867 29.8798 9.75334ZM12.9377 8.65935L12.8441 8.70536L12.9435 8.73992C13.7795 9.03932 14.4168 9.51721 14.8435 10.1678C15.2703 10.8185 15.4866 11.6187 15.4866 12.5399C15.4866 13.4957 15.2411 14.3651 14.75 15.1309C14.4402 15.6376 14.0485 16.0636 13.5867 16.4091C13.0664 16.8006 12.435 17.0769 11.7276 17.2209C11.0085 17.3706 10.2251 17.4454 9.38913 17.4454H1.17521V1.15726H9.92696C11.9322 1.18602 13.3703 1.76756 14.2005 2.88452C14.7032 3.56969 14.9546 4.39878 14.9546 5.3603C14.9546 6.34483 14.6974 7.14511 14.1946 7.74391C13.9081 8.07786 13.4873 8.383 12.9377 8.65935ZM22.7709 3.94386C22.4786 3.94386 22.1921 3.95537 21.9174 3.98416H20.0583V1.45083H25.5011V3.98416H23.642C23.3555 3.96114 23.0633 3.94386 22.7709 3.94386ZM19.8712 12.3269C19.9238 13.5532 20.3623 14.4227 21.1808 14.9178C21.6777 15.223 22.2798 15.3784 22.9755 15.3784C23.718 15.3784 24.326 15.1884 24.7878 14.8142C25.0392 14.6127 25.2614 14.3364 25.4485 13.9909H28.6521C28.5528 14.6819 28.1611 15.39 27.4771 16.1039C26.3897 17.267 24.8463 17.8543 22.882 17.8543C21.2626 17.8543 19.8127 17.3591 18.5792 16.3745C17.3457 15.3958 16.7201 13.7721 16.7201 11.5612C16.7201 9.48848 17.2872 7.87061 18.3979 6.76514C19.345 5.82665 20.5493 5.27966 21.9816 5.13571H23.5776C24.3201 5.21054 25.0099 5.38329 25.6355 5.65964C26.4831 6.03384 27.1905 6.63264 27.7401 7.43871C28.237 8.1469 28.5644 8.98751 28.7105 9.92597C28.7982 10.4787 28.8333 11.2675 28.8158 12.2808H19.8711L19.8712 12.3269ZM24.0512 13.916C23.794 14.1233 23.4432 14.2211 22.9755 14.2211C22.4961 14.2211 22.1162 14.129 21.8063 13.939C21.6543 13.8469 21.4672 13.7087 21.3152 13.4323H24.4195C24.3026 13.6511 24.1798 13.8124 24.0512 13.916Z" fill="white"/>
</svg>
