<svg width="15" height="18" viewBox="0 0 15 18" fill="none" xmlns="http://www.w3.org/2000/svg">
<path d="M15 7.61454C15 9.56787 14.3267 11.3533 13.1054 12.6437C11.9651 13.8458 10.419 14.5382 8.86364 14.5382C7.33977 14.5382 6.32216 14.031 5.67358 13.4996L4.75483 17.466C4.71966 17.618 4.63494 17.7534 4.51442 17.8504C4.3939 17.9473 4.24465 18 4.09091 18C4.03813 17.9999 3.98553 17.9938 3.93409 17.9818C3.84659 17.9614 3.76391 17.9237 3.6908 17.8708C3.6177 17.8178 3.55561 17.7508 3.50809 17.6734C3.46058 17.5961 3.42858 17.5099 3.41393 17.42C3.39928 17.33 3.40227 17.238 3.42273 17.1493L6.15 5.37907C6.19137 5.20026 6.30098 5.04547 6.45474 4.94873C6.6085 4.852 6.7938 4.82125 6.96989 4.86326C7.14597 4.90526 7.29841 5.01658 7.39367 5.17271C7.48893 5.32885 7.51921 5.51702 7.47784 5.69583L6.0375 11.9098C6.30682 12.288 7.09943 13.1535 8.86364 13.1535C11.2099 13.1535 13.6364 11.0816 13.6364 7.61454C13.636 6.65896 13.4192 5.71627 13.0028 4.85935C12.5863 4.00244 11.9814 3.25427 11.2347 2.67268C10.488 2.0911 9.61965 1.69169 8.6967 1.50533C7.77374 1.31898 6.82094 1.35067 5.91197 1.59797C5.003 1.84526 4.16222 2.30153 3.45464 2.93149C2.74705 3.56145 2.19163 4.34823 1.8313 5.23098C1.47098 6.11373 1.31542 7.06881 1.37664 8.02237C1.43786 8.97592 1.71423 9.90241 2.18438 10.7302C2.26918 10.8888 2.28966 11.0747 2.24144 11.2484C2.19322 11.4221 2.08012 11.5698 1.92622 11.6601C1.77233 11.7504 1.58981 11.7761 1.41755 11.7317C1.24528 11.6873 1.09689 11.5764 1.00398 11.4225C0.429061 10.4108 0.091012 9.2784 0.0159757 8.11282C-0.0590606 6.94724 0.130927 5.77975 0.571244 4.70065C1.01156 3.62155 1.69041 2.65976 2.55528 1.88965C3.42016 1.11955 4.44788 0.561781 5.55897 0.25948C6.67005 -0.0428215 7.83472 -0.0815517 8.96291 0.146285C10.0911 0.374121 11.1525 0.862418 12.0652 1.57341C12.9778 2.2844 13.7172 3.19904 14.2261 4.24657C14.735 5.29411 14.9998 6.44647 15 7.61454Z" fill="white"/>
</svg>
